<svg width="26" height="25" viewBox="0 0 26 25" fill="none" xmlns="http://www.w3.org/2000/svg">
<path opacity="0.2" d="M25 2V13C25 19.075 19.625 24 13 24C6.375 24 1 19.075 1 13V2C0.999845 1.80211 1.05841 1.60861 1.16828 1.44402C1.27815 1.27943 1.43439 1.15113 1.61721 1.07538C1.80003 0.999627 2.00122 0.979822 2.19531 1.01847C2.38939 1.05712 2.56764 1.15249 2.7075 1.2925L5.45 4.45C7.64534 2.85763 10.288 2.00014 13 2.00014C15.712 2.00014 18.3547 2.85763 20.55 4.45L23.2925 1.295C23.4322 1.15514 23.6102 1.05982 23.8041 1.02109C23.9979 0.982363 24.1989 1.00196 24.3816 1.0774C24.5644 1.15284 24.7206 1.28075 24.8307 1.44496C24.9407 1.60917 24.9997 1.80232 25 2Z" fill="#F3F3F3"/>
<path d="M9 13.5C9 13.7967 8.91203 14.0867 8.7472 14.3334C8.58238 14.58 8.34811 14.7723 8.07403 14.8858C7.79994 14.9993 7.49834 15.0291 7.20736 14.9712C6.91639 14.9133 6.64912 14.7704 6.43934 14.5607C6.22956 14.3509 6.0867 14.0836 6.02882 13.7926C5.97094 13.5017 6.00065 13.2001 6.11418 12.926C6.22771 12.6519 6.41997 12.4176 6.66665 12.2528C6.91332 12.088 7.20333 12 7.5 12C7.89782 12 8.27936 12.158 8.56066 12.4393C8.84196 12.7206 9 13.1022 9 13.5ZM18.5 12C18.2033 12 17.9133 12.088 17.6666 12.2528C17.42 12.4176 17.2277 12.6519 17.1142 12.926C17.0007 13.2001 16.9709 13.5017 17.0288 13.7926C17.0867 14.0836 17.2296 14.3509 17.4393 14.5607C17.6491 14.7704 17.9164 14.9133 18.2074 14.9712C18.4983 15.0291 18.7999 14.9993 19.074 14.8858C19.3481 14.7723 19.5824 14.58 19.7472 14.3334C19.912 14.0867 20 13.7967 20 13.5C20 13.1022 19.842 12.7206 19.5607 12.4393C19.2794 12.158 18.8978 12 18.5 12ZM26 2V13C26 19.6162 20.1687 25 13 25C5.83125 25 0 19.6162 0 13V2C0.000183233 1.60457 0.117581 1.21807 0.337356 0.889342C0.557131 0.560614 0.86942 0.304412 1.23476 0.153113C1.6001 0.00181404 2.00209 -0.0377909 2.38993 0.0393029C2.77777 0.116397 3.13405 0.306729 3.41375 0.586247C3.43125 0.603747 3.44625 0.619997 3.46125 0.637497L5.625 3.125C7.83743 1.73885 10.3955 1.0037 13.0063 1.0037C15.617 1.0037 18.1751 1.73885 20.3875 3.125L22.5387 0.637497C22.5537 0.619997 22.5688 0.603747 22.5863 0.586247C22.866 0.306729 23.2222 0.116397 23.6101 0.0393029C23.9979 -0.0377909 24.3999 0.00181404 24.7652 0.153113C25.1306 0.304412 25.4429 0.560614 25.6626 0.889342C25.8824 1.21807 25.9998 1.60457 26 2ZM24 2L21.305 5.1C21.1401 5.29072 20.9093 5.41214 20.6588 5.43995C20.4082 5.46776 20.1564 5.39992 19.9538 5.25C19.3437 4.79886 18.689 4.41142 18 4.09375V7C18 7.26521 17.8946 7.51957 17.7071 7.7071C17.5196 7.89464 17.2652 8 17 8C16.7348 8 16.4804 7.89464 16.2929 7.7071C16.1054 7.51957 16 7.26521 16 7V3.38125C15.3439 3.21249 14.675 3.09876 14 3.04125V7C14 7.26521 13.8946 7.51957 13.7071 7.7071C13.5196 7.89464 13.2652 8 13 8C12.7348 8 12.4804 7.89464 12.2929 7.7071C12.1054 7.51957 12 7.26521 12 7V3.04125C11.325 3.09876 10.6561 3.21249 10 3.38125V7C10 7.26521 9.89464 7.51957 9.70711 7.7071C9.51957 7.89464 9.26522 8 9 8C8.73478 8 8.48043 7.89464 8.29289 7.7071C8.10536 7.51957 8 7.26521 8 7V4.09375C7.31097 4.41142 6.6563 4.79886 6.04625 5.25C5.84403 5.40036 5.59249 5.46883 5.34196 5.44172C5.09143 5.4146 4.86037 5.2939 4.695 5.10375L2 2V13C2 18.2075 6.40125 22.5 12 22.9587V20.4137L10.2925 18.7062C10.1997 18.6133 10.1261 18.5031 10.0758 18.3817C10.0256 18.2603 9.99983 18.1303 9.99989 17.9989C9.99994 17.8676 10.0259 17.7376 10.0762 17.6162C10.1265 17.4949 10.2002 17.3847 10.2931 17.2919C10.4808 17.1044 10.7352 16.9991 11.0004 16.9993C11.1318 16.9993 11.2618 17.0252 11.3831 17.0756C11.5045 17.1259 11.6147 17.1996 11.7075 17.2925L13 18.585L14.2925 17.2925C14.3853 17.1996 14.4955 17.1259 14.6169 17.0756C14.7382 17.0252 14.8682 16.9993 14.9996 16.9993C15.1309 16.9992 15.261 17.025 15.3823 17.0752C15.5037 17.1254 15.614 17.199 15.7069 17.2919C15.7998 17.3847 15.8735 17.4949 15.9238 17.6162C15.9741 17.7376 16.0001 17.8676 16.0001 17.9989C16.0002 18.1303 15.9744 18.2603 15.9242 18.3817C15.8739 18.5031 15.8003 18.6133 15.7075 18.7062L14 20.4137V22.9587C19.5988 22.4975 24 18.2087 24 13V2Z" fill="black"/>
</svg>
