<svg width="98" height="97" viewBox="0 0 98 97" fill="none" xmlns="http://www.w3.org/2000/svg">
<path d="M98 48.5C98 75.2858 76.062 97 49 97C21.938 97 0 75.2858 0 48.5C0 21.7142 21.938 0 49 0C76.062 0 98 21.7142 98 48.5Z" fill="#3DB889"/>
<path d="M75.8077 27H23.1923C22.6109 27 22.0532 27.2265 21.6421 27.6297C21.231 28.0329 21 28.5798 21 29.15V65.7C21 66.8404 21.4619 67.9342 22.2842 68.7406C23.1065 69.547 24.2217 70 25.3846 70H73.6154C74.7783 70 75.8935 69.547 76.7158 68.7406C77.538 67.9342 78 66.8404 78 65.7V29.15C78 28.5798 77.769 28.0329 77.3579 27.6297C76.9468 27.2265 76.3891 27 75.8077 27ZM49.5 49.8841L28.8293 31.3H70.1707L49.5 49.8841ZM41.4734 48.5L25.3846 62.9614V34.0386L41.4734 48.5ZM44.718 51.4159L48.0065 54.3856C48.411 54.7497 48.94 54.9518 49.489 54.9518C50.0381 54.9518 50.5671 54.7497 50.9716 54.3856L54.26 51.4159L70.1543 65.7H28.8293L44.718 51.4159ZM57.5266 48.5L73.6154 34.0359V62.9641L57.5266 48.5Z" fill="#F3F3F3"/>
</svg>
