<svg width="32" height="32" viewBox="0 0 32 32" fill="none" xmlns="http://www.w3.org/2000/svg">
<path opacity="0.2" d="M16 4C13.6266 4 11.3066 4.70379 9.33316 6.02236C7.35977 7.34094 5.8217 9.21509 4.91345 11.4078C4.0052 13.6005 3.76756 16.0133 4.23058 18.3411C4.6936 20.6689 5.83649 22.8071 7.51472 24.4853C9.19295 26.1635 11.3312 27.3064 13.6589 27.7694C15.9867 28.2324 18.3995 27.9948 20.5922 27.0866C22.7849 26.1783 24.6591 24.6402 25.9776 22.6668C27.2962 20.6935 28 18.3734 28 16C28 12.8174 26.7357 9.76516 24.4853 7.51472C22.2349 5.26428 19.1826 4 16 4ZM10 18C9.60444 18 9.21776 17.8827 8.88887 17.6629C8.55997 17.4432 8.30362 17.1308 8.15225 16.7654C8.00087 16.3999 7.96126 15.9978 8.03843 15.6098C8.11561 15.2219 8.30609 14.8655 8.58579 14.5858C8.8655 14.3061 9.22186 14.1156 9.60983 14.0384C9.99779 13.9613 10.3999 14.0009 10.7654 14.1522C11.1308 14.3036 11.4432 14.56 11.6629 14.8889C11.8827 15.2178 12 15.6044 12 16C12 16.5304 11.7893 17.0391 11.4142 17.4142C11.0391 17.7893 10.5304 18 10 18ZM16 24C15.6044 24 15.2178 23.8827 14.8889 23.6629C14.56 23.4432 14.3036 23.1308 14.1522 22.7654C14.0009 22.3999 13.9613 21.9978 14.0384 21.6098C14.1156 21.2219 14.3061 20.8655 14.5858 20.5858C14.8655 20.3061 15.2219 20.1156 15.6098 20.0384C15.9978 19.9613 16.3999 20.0009 16.7654 20.1522C17.1308 20.3036 17.4432 20.56 17.6629 20.8889C17.8827 21.2178 18 21.6044 18 22C18 22.5304 17.7893 23.0391 17.4142 23.4142C17.0391 23.7893 16.5304 24 16 24ZM16 12C15.6044 12 15.2178 11.8827 14.8889 11.6629C14.56 11.4432 14.3036 11.1308 14.1522 10.7654C14.0009 10.3999 13.9613 9.99778 14.0384 9.60982C14.1156 9.22186 14.3061 8.86549 14.5858 8.58579C14.8655 8.30608 15.2219 8.1156 15.6098 8.03843C15.9978 7.96126 16.3999 8.00087 16.7654 8.15224C17.1308 8.30362 17.4432 8.55996 17.6629 8.88886C17.8827 9.21776 18 9.60444 18 10C18 10.5304 17.7893 11.0391 17.4142 11.4142C17.0391 11.7893 16.5304 12 16 12ZM22 18C21.6044 18 21.2178 17.8827 20.8889 17.6629C20.56 17.4432 20.3036 17.1308 20.1522 16.7654C20.0009 16.3999 19.9613 15.9978 20.0384 15.6098C20.1156 15.2219 20.3061 14.8655 20.5858 14.5858C20.8655 14.3061 21.2219 14.1156 21.6098 14.0384C21.9978 13.9613 22.3999 14.0009 22.7654 14.1522C23.1308 14.3036 23.4432 14.56 23.6629 14.8889C23.8827 15.2178 24 15.6044 24 16C24 16.5304 23.7893 17.0391 23.4142 17.4142C23.0391 17.7893 22.5304 18 22 18Z" fill="#F3F3F3"/>
<path d="M29 27H22.92C25.5691 25.331 27.5265 22.7615 28.4321 19.7642C29.3376 16.7669 29.1304 13.5435 27.8486 10.6868C26.5668 7.83013 24.2966 5.53238 21.4555 4.21622C18.6145 2.90007 15.3938 2.65404 12.3858 3.5234C9.37787 4.39275 6.78498 6.31901 5.08413 8.94784C3.38328 11.5767 2.68888 14.7313 3.12866 17.8313C3.56843 20.9313 5.11281 23.7683 7.4777 25.8204C9.84259 27.8724 12.8689 29.0015 16 29H29C29.2652 29 29.5196 28.8946 29.7071 28.7071C29.8946 28.5196 30 28.2652 30 28C30 27.7348 29.8946 27.4804 29.7071 27.2929C29.5196 27.1054 29.2652 27 29 27ZM5 16C5 13.8244 5.64514 11.6977 6.85383 9.88872C8.06253 8.07978 9.78049 6.66989 11.7905 5.83732C13.8005 5.00476 16.0122 4.78692 18.146 5.21136C20.2798 5.6358 22.2398 6.68344 23.7782 8.22182C25.3166 9.7602 26.3642 11.7202 26.7886 13.854C27.2131 15.9878 26.9952 18.1995 26.1627 20.2095C25.3301 22.2195 23.9202 23.9375 22.1113 25.1462C20.3023 26.3549 18.1756 27 16 27C13.0836 26.9967 10.2877 25.8367 8.22548 23.7745C6.16329 21.7123 5.00331 18.9164 5 16ZM16 13C16.5933 13 17.1734 12.824 17.6667 12.4944C18.1601 12.1648 18.5446 11.6962 18.7716 11.148C18.9987 10.5999 19.0581 9.99667 18.9424 9.41473C18.8266 8.83278 18.5409 8.29823 18.1213 7.87868C17.7018 7.45912 17.1672 7.1734 16.5853 7.05764C16.0033 6.94189 15.4001 7.0013 14.8519 7.22836C14.3038 7.45542 13.8352 7.83994 13.5056 8.33329C13.1759 8.82663 13 9.40665 13 10C13 10.7956 13.3161 11.5587 13.8787 12.1213C14.4413 12.6839 15.2043 13 16 13ZM16 9C16.1978 9 16.3911 9.05865 16.5556 9.16853C16.72 9.27841 16.8482 9.43459 16.9239 9.61731C16.9996 9.80004 17.0194 10.0011 16.9808 10.1951C16.9422 10.3891 16.847 10.5673 16.7071 10.7071C16.5673 10.847 16.3891 10.9422 16.1951 10.9808C16.0011 11.0194 15.8 10.9996 15.6173 10.9239C15.4346 10.8482 15.2784 10.72 15.1685 10.5556C15.0586 10.3911 15 10.1978 15 10C15 9.73478 15.1054 9.48043 15.2929 9.29289C15.4804 9.10535 15.7348 9 16 9ZM19 22C19 21.4067 18.8241 20.8266 18.4944 20.3333C18.1648 19.8399 17.6962 19.4554 17.148 19.2284C16.5999 19.0013 15.9967 18.9419 15.4147 19.0576C14.8328 19.1734 14.2982 19.4591 13.8787 19.8787C13.4591 20.2982 13.1734 20.8328 13.0576 21.4147C12.9419 21.9967 13.0013 22.5999 13.2284 23.148C13.4554 23.6962 13.8399 24.1648 14.3333 24.4944C14.8266 24.824 15.4067 25 16 25C16.7956 25 17.5587 24.6839 18.1213 24.1213C18.6839 23.5587 19 22.7956 19 22ZM15 22C15 21.8022 15.0586 21.6089 15.1685 21.4444C15.2784 21.28 15.4346 21.1518 15.6173 21.0761C15.8 21.0004 16.0011 20.9806 16.1951 21.0192C16.3891 21.0578 16.5673 21.153 16.7071 21.2929C16.847 21.4327 16.9422 21.6109 16.9808 21.8049C17.0194 21.9989 16.9996 22.2 16.9239 22.3827C16.8482 22.5654 16.72 22.7216 16.5556 22.8315C16.3911 22.9413 16.1978 23 16 23C15.7348 23 15.4804 22.8946 15.2929 22.7071C15.1054 22.5196 15 22.2652 15 22ZM22 19C22.5933 19 23.1734 18.824 23.6667 18.4944C24.1601 18.1648 24.5446 17.6962 24.7716 17.148C24.9987 16.5999 25.0581 15.9967 24.9424 15.4147C24.8266 14.8328 24.5409 14.2982 24.1213 13.8787C23.7018 13.4591 23.1672 13.1734 22.5853 13.0576C22.0033 12.9419 21.4001 13.0013 20.8519 13.2284C20.3038 13.4554 19.8352 13.8399 19.5056 14.3333C19.1759 14.8266 19 15.4067 19 16C19 16.7956 19.3161 17.5587 19.8787 18.1213C20.4413 18.6839 21.2044 19 22 19ZM22 15C22.1978 15 22.3911 15.0586 22.5556 15.1685C22.72 15.2784 22.8482 15.4346 22.9239 15.6173C22.9996 15.8 23.0194 16.0011 22.9808 16.1951C22.9422 16.3891 22.847 16.5673 22.7071 16.7071C22.5673 16.847 22.3891 16.9422 22.1951 16.9808C22.0011 17.0194 21.8 16.9996 21.6173 16.9239C21.4346 16.8482 21.2784 16.72 21.1685 16.5556C21.0586 16.3911 21 16.1978 21 16C21 15.7348 21.1054 15.4804 21.2929 15.2929C21.4804 15.1054 21.7348 15 22 15ZM10 13C9.40666 13 8.82664 13.1759 8.33329 13.5056C7.83994 13.8352 7.45542 14.3038 7.22836 14.8519C7.0013 15.4001 6.94189 16.0033 7.05764 16.5853C7.1734 17.1672 7.45912 17.7018 7.87868 18.1213C8.29824 18.5409 8.83279 18.8266 9.41473 18.9424C9.99667 19.0581 10.5999 18.9987 11.148 18.7716C11.6962 18.5446 12.1648 18.1601 12.4944 17.6667C12.8241 17.1734 13 16.5933 13 16C13 15.2043 12.6839 14.4413 12.1213 13.8787C11.5587 13.3161 10.7956 13 10 13ZM10 17C9.80222 17 9.60888 16.9413 9.44443 16.8315C9.27998 16.7216 9.15181 16.5654 9.07612 16.3827C9.00043 16.2 8.98063 15.9989 9.01921 15.8049C9.0578 15.6109 9.15304 15.4327 9.29289 15.2929C9.43274 15.153 9.61093 15.0578 9.80491 15.0192C9.99889 14.9806 10.2 15.0004 10.3827 15.0761C10.5654 15.1518 10.7216 15.28 10.8315 15.4444C10.9413 15.6089 11 15.8022 11 16C11 16.2652 10.8946 16.5196 10.7071 16.7071C10.5196 16.8946 10.2652 17 10 17Z" fill="black"/>
</svg>
