<svg width="27" height="27" viewBox="0 0 27 27" fill="none" xmlns="http://www.w3.org/2000/svg">
<path opacity="0.2" d="M26 10V11C26 12.5913 25.3679 14.1174 24.2426 15.2426C23.1174 16.3679 21.5913 17 20 17H17C18.0609 17 19.0783 17.4214 19.8284 18.1716C20.5786 18.9217 21 19.9391 21 21V26H13V21C13 19.9391 13.4214 18.9217 14.1716 18.1716C14.9217 17.4214 15.9391 17 17 17H14C12.4087 17 10.8826 16.3679 9.75736 15.2426C8.63214 14.1174 8 12.5913 8 11V10C8.00951 8.78236 8.37968 7.59486 9.06375 6.5875C8.71434 5.68274 8.57215 4.71117 8.64765 3.74423C8.72314 2.77729 9.0144 1.83956 9.5 1C10.5917 0.999744 11.6658 1.27445 12.6234 1.79876C13.5809 2.32307 14.3909 3.0801 14.9788 4H19.0212C19.6091 3.0801 20.4191 2.32307 21.3766 1.79876C22.3342 1.27445 23.4083 0.999744 24.5 1C24.9856 1.83956 25.2769 2.77729 25.3524 3.74423C25.4278 4.71117 25.2857 5.68274 24.9363 6.5875C25.6203 7.59486 25.9905 8.78236 26 10Z" fill="#F3F3F3"/>
<path d="M26.0375 6.46C26.3437 5.47412 26.4421 4.43548 26.3265 3.40965C26.211 2.38382 25.884 1.39308 25.3662 0.499999C25.2785 0.347947 25.1522 0.221688 25.0001 0.133918C24.8481 0.0461474 24.6756 -4.02328e-05 24.5 -8.01952e-07C23.3352 -0.00243883 22.186 0.267579 21.1442 0.78848C20.1024 1.30938 19.1969 2.06672 18.5 3H15.5C14.8031 2.06672 13.8976 1.30938 12.8558 0.78848C11.814 0.267579 10.6648 -0.00243883 9.5 -8.01952e-07C9.32443 -4.02328e-05 9.15193 0.0461474 8.99987 0.133918C8.84781 0.221688 8.72154 0.347947 8.63375 0.499999C8.11606 1.3931 7.78903 2.38378 7.67329 3.40957C7.55754 4.43535 7.65559 5.47399 7.96125 6.46C7.34341 7.53839 7.01245 8.75722 7 10V11C7.0021 12.692 7.61634 14.3261 8.72928 15.6006C9.84222 16.875 11.3787 17.7038 13.055 17.9338C12.3708 18.8093 11.9994 19.8888 12 21V22H9C8.20435 22 7.44129 21.6839 6.87868 21.1213C6.31607 20.5587 6 19.7956 6 19C6 18.3434 5.87067 17.6932 5.6194 17.0866C5.36812 16.48 4.99983 15.9288 4.53553 15.4645C4.07124 15.0002 3.52005 14.6319 2.91342 14.3806C2.30679 14.1293 1.65661 14 1 14C0.734784 14 0.48043 14.1054 0.292893 14.2929C0.105357 14.4804 0 14.7348 0 15C0 15.2652 0.105357 15.5196 0.292893 15.7071C0.48043 15.8946 0.734784 16 1 16C1.79565 16 2.55871 16.3161 3.12132 16.8787C3.68393 17.4413 4 18.2044 4 19C4 20.3261 4.52678 21.5979 5.46447 22.5355C6.40215 23.4732 7.67392 24 9 24H12V26C12 26.2652 12.1054 26.5196 12.2929 26.7071C12.4804 26.8946 12.7348 27 13 27C13.2652 27 13.5196 26.8946 13.7071 26.7071C13.8946 26.5196 14 26.2652 14 26V21C14 20.2044 14.3161 19.4413 14.8787 18.8787C15.4413 18.3161 16.2044 18 17 18C17.7956 18 18.5587 18.3161 19.1213 18.8787C19.6839 19.4413 20 20.2044 20 21V26C20 26.2652 20.1054 26.5196 20.2929 26.7071C20.4804 26.8946 20.7348 27 21 27C21.2652 27 21.5196 26.8946 21.7071 26.7071C21.8946 26.5196 22 26.2652 22 26V21C22.0006 19.8888 21.6292 18.8093 20.945 17.9338C22.6213 17.7038 24.1578 16.875 25.2707 15.6006C26.3837 14.3261 26.9979 12.692 27 11V10C26.9879 8.757 26.6565 7.53797 26.0375 6.46ZM25 11C25 12.3261 24.4732 13.5979 23.5355 14.5355C22.5979 15.4732 21.3261 16 20 16H14C12.6739 16 11.4021 15.4732 10.4645 14.5355C9.52678 13.5979 9 12.3261 9 11V10C9.01226 9.00003 9.31164 8.02465 9.8625 7.19C9.96519 7.05465 10.0317 6.89537 10.0558 6.72718C10.0798 6.559 10.0606 6.38746 10 6.22875C9.73953 5.557 9.61417 4.84044 9.63112 4.12016C9.64806 3.39987 9.80698 2.69001 10.0988 2.03125C10.9171 2.11929 11.7052 2.39039 12.4046 2.82446C13.104 3.25853 13.6966 3.84444 14.1388 4.53875C14.2288 4.67963 14.3528 4.79567 14.4994 4.87625C14.6459 4.95683 14.8103 4.99938 14.9775 5H19.0212C19.1891 5 19.3543 4.95776 19.5015 4.87715C19.6487 4.79654 19.7733 4.68016 19.8638 4.53875C20.3058 3.84438 20.8985 3.25842 21.5978 2.82435C22.2972 2.39027 23.0853 2.1192 23.9037 2.03125C24.1951 2.69018 24.3536 3.40012 24.3701 4.12041C24.3866 4.84069 24.2609 5.55716 24 6.22875C23.9396 6.38594 23.9193 6.55574 23.9412 6.72273C23.963 6.88973 24.0262 7.04862 24.125 7.185C24.6811 8.01978 24.9848 8.99709 25 10V11Z" fill="black"/>
</svg>
