<svg width="98" height="97" viewBox="0 0 98 97" fill="none" xmlns="http://www.w3.org/2000/svg">
<path d="M98 48.5C98 75.2858 76.062 97 49 97C21.938 97 0 75.2858 0 48.5C0 21.7142 21.938 0 49 0C76.062 0 98 21.7142 98 48.5Z" fill="#3DB889"/>
<path d="M49 38.5385C46.5353 38.5385 44.126 39.2693 42.0767 40.6386C40.0275 42.0079 38.4302 43.9541 37.487 46.2312C36.5439 48.5082 36.2971 51.0138 36.7779 53.4311C37.2587 55.8484 38.4456 58.0689 40.1884 59.8116C41.9311 61.5544 44.1516 62.7413 46.5689 63.2221C48.9862 63.7029 51.4918 63.4561 53.7688 62.513C56.0459 61.5698 57.9921 59.9726 59.3614 57.9233C60.7307 55.874 61.4615 53.4647 61.4615 51C61.4581 47.696 60.1441 44.5284 57.8078 42.1922C55.4716 39.8559 52.304 38.5419 49 38.5385ZM49 59.3077C47.3569 59.3077 45.7507 58.8205 44.3845 57.9076C43.0183 56.9947 41.9535 55.6972 41.3247 54.1792C40.6959 52.6612 40.5314 50.9908 40.8519 49.3793C41.1725 47.7677 41.9637 46.2874 43.1256 45.1256C44.2874 43.9637 45.7677 43.1725 47.3793 42.8519C48.9908 42.5314 50.6612 42.6959 52.1792 43.3247C53.6972 43.9535 54.9947 45.0183 55.9076 46.3845C56.8205 47.7507 57.3077 49.3569 57.3077 51C57.3077 53.2033 56.4324 55.3164 54.8744 56.8744C53.3164 58.4324 51.2033 59.3077 49 59.3077ZM61.4615 24H36.5385C32.6839 24.0041 28.9884 25.5372 26.2628 28.2628C23.5372 30.9884 22.0041 34.6839 22 38.5385V63.4615C22.0041 67.3161 23.5372 71.0116 26.2628 73.7372C28.9884 76.4628 32.6839 77.9959 36.5385 78H61.4615C65.3161 77.9959 69.0116 76.4628 71.7372 73.7372C74.4628 71.0116 75.9959 67.3161 76 63.4615V38.5385C75.9959 34.6839 74.4628 30.9884 71.7372 28.2628C69.0116 25.5372 65.3161 24.0041 61.4615 24ZM71.8462 63.4615C71.8462 66.2157 70.7521 68.8571 68.8046 70.8046C66.8571 72.7521 64.2157 73.8462 61.4615 73.8462H36.5385C33.7843 73.8462 31.1429 72.7521 29.1954 70.8046C27.2479 68.8571 26.1538 66.2157 26.1538 63.4615V38.5385C26.1538 35.7843 27.2479 33.1429 29.1954 31.1954C31.1429 29.2479 33.7843 28.1538 36.5385 28.1538H61.4615C64.2157 28.1538 66.8571 29.2479 68.8046 31.1954C70.7521 33.1429 71.8462 35.7843 71.8462 38.5385V63.4615ZM65.6154 37.5C65.6154 38.1162 65.4327 38.7185 65.0903 39.2308C64.748 39.7431 64.2615 40.1424 63.6922 40.3782C63.1229 40.614 62.4965 40.6757 61.8922 40.5555C61.2879 40.4353 60.7328 40.1386 60.2971 39.7029C59.8614 39.2672 59.5647 38.7121 59.4445 38.1078C59.3243 37.5035 59.386 36.8771 59.6218 36.3078C59.8576 35.7385 60.2569 35.252 60.7692 34.9097C61.2815 34.5673 61.8838 34.3846 62.5 34.3846C63.3263 34.3846 64.1187 34.7128 64.7029 35.2971C65.2872 35.8813 65.6154 36.6737 65.6154 37.5Z" fill="#F3F3F3"/>
</svg>
