<svg width="98" height="97" viewBox="0 0 98 97" fill="none" xmlns="http://www.w3.org/2000/svg">
<path d="M98 48.5C98 75.2858 76.062 97 49 97C21.938 97 0 75.2858 0 48.5C0 21.7142 21.938 0 49 0C76.062 0 98 21.7142 98 48.5Z" fill="#3DB889"/>
<path d="M71.5 22H26.125C25.031 22 23.9818 22.4412 23.2082 23.2265C22.4346 24.0118 22 25.0769 22 26.1875V72.25C22 73.3606 22.4346 74.4257 23.2082 75.211C23.9818 75.9963 25.031 76.4375 26.125 76.4375H71.5C72.594 76.4375 73.6432 75.9963 74.4168 75.211C75.1904 74.4257 75.625 73.3606 75.625 72.25V26.1875C75.625 25.0769 75.1904 24.0118 74.4168 23.2265C73.6432 22.4412 72.594 22 71.5 22ZM71.5 72.25H26.125V26.1875H71.5V72.25ZM40.5625 45.0312V61.7812C40.5625 62.3365 40.3452 62.8691 39.9584 63.2618C39.5716 63.6544 39.047 63.875 38.5 63.875C37.953 63.875 37.4284 63.6544 37.0416 63.2618C36.6548 62.8691 36.4375 62.3365 36.4375 61.7812V45.0312C36.4375 44.476 36.6548 43.9434 37.0416 43.5507C37.4284 43.1581 37.953 42.9375 38.5 42.9375C39.047 42.9375 39.5716 43.1581 39.9584 43.5507C40.3452 43.9434 40.5625 44.476 40.5625 45.0312ZM63.25 52.3594V61.7812C63.25 62.3365 63.0327 62.8691 62.6459 63.2618C62.2591 63.6544 61.7345 63.875 61.1875 63.875C60.6405 63.875 60.1159 63.6544 59.7291 63.2618C59.3423 62.8691 59.125 62.3365 59.125 61.7812V52.3594C59.125 50.9711 58.5818 49.6397 57.6148 48.6581C56.6478 47.6765 55.3363 47.125 53.9688 47.125C52.6012 47.125 51.2897 47.6765 50.3227 48.6581C49.3557 49.6397 48.8125 50.9711 48.8125 52.3594V61.7812C48.8125 62.3365 48.5952 62.8691 48.2084 63.2618C47.8216 63.6544 47.297 63.875 46.75 63.875C46.203 63.875 45.6784 63.6544 45.2916 63.2618C44.9048 62.8691 44.6875 62.3365 44.6875 61.7812V45.0312C44.6901 44.5184 44.878 44.0243 45.2155 43.6428C45.5531 43.2612 46.0169 43.0187 46.5189 42.9613C47.021 42.9038 47.5263 43.0354 47.9391 43.3311C48.3519 43.6268 48.6434 44.066 48.7584 44.5654C50.1536 43.6046 51.7803 43.0477 53.4638 42.9546C55.1473 42.8614 56.824 43.2356 58.3138 44.0369C59.8036 44.8381 61.0503 46.0362 61.92 47.5025C62.7896 48.9688 63.2494 50.6478 63.25 52.3594ZM41.5938 37.7031C41.5938 38.3243 41.4123 38.9315 41.0724 39.448C40.7324 39.9644 40.2492 40.367 39.6839 40.6047C39.1186 40.8424 38.4966 40.9046 37.8964 40.7834C37.2963 40.6622 36.7451 40.3631 36.3124 39.9239C35.8797 39.4847 35.5851 38.9251 35.4657 38.3158C35.3463 37.7066 35.4076 37.0751 35.6417 36.5013C35.8759 35.9274 36.2724 35.4369 36.7812 35.0918C37.29 34.7467 37.8881 34.5625 38.5 34.5625C39.3205 34.5625 40.1074 34.8934 40.6876 35.4824C41.2678 36.0713 41.5938 36.8702 41.5938 37.7031Z" fill="white"/>
</svg>
