<svg width="25" height="27" viewBox="0 0 25 27" fill="none" xmlns="http://www.w3.org/2000/svg">
<path opacity="0.2" d="M24 18.5C24 19.1922 23.7947 19.8689 23.4101 20.4445C23.0256 21.0201 22.4789 21.4687 21.8394 21.7336C21.1999 21.9985 20.4961 22.0678 19.8172 21.9327C19.1383 21.7977 18.5146 21.4644 18.0251 20.9749C17.5356 20.4854 17.2023 19.8617 17.0673 19.1828C16.9322 18.5039 17.0015 17.8001 17.2664 17.1606C17.5313 16.5211 17.9799 15.9744 18.5555 15.5899C19.1311 15.2053 19.8078 15 20.5 15C21.4283 15 22.3185 15.3687 22.9749 16.0251C23.6313 16.6815 24 17.5717 24 18.5ZM4.5 19C3.80777 19 3.13108 19.2053 2.55551 19.5899C1.97993 19.9744 1.53133 20.5211 1.26642 21.1606C1.00152 21.8001 0.932205 22.5039 1.06725 23.1828C1.2023 23.8617 1.53564 24.4854 2.02513 24.9749C2.51461 25.4644 3.13825 25.7977 3.81719 25.9327C4.49612 26.0678 5.19985 25.9985 5.83939 25.7336C6.47894 25.4687 7.02556 25.0201 7.41015 24.4445C7.79473 23.8689 8 23.1922 8 22.5C8 21.5717 7.63125 20.6815 6.97487 20.0251C6.3185 19.3687 5.42826 19 4.5 19Z" fill="#F3F3F3"/>
<path d="M24.615 0.211251C24.4952 0.117913 24.3557 0.0530826 24.2072 0.0216781C24.0586 -0.00972645 23.9048 -0.00688035 23.7575 0.0300005L7.7575 4.03C7.54116 4.08408 7.3491 4.20891 7.21185 4.38467C7.0746 4.56042 7.00003 4.77701 7 5V18.76C6.16579 18.2026 5.16924 17.94 4.16868 18.0139C3.16812 18.0877 2.22094 18.4939 1.47763 19.1677C0.73432 19.8415 0.23751 20.7445 0.0661346 21.733C-0.105241 22.7215 0.058648 23.739 0.531763 24.6237C1.00488 25.5084 1.76008 26.2097 2.67739 26.616C3.59469 27.0224 4.62149 27.1105 5.59464 26.8665C6.56778 26.6224 7.43146 26.0602 8.04846 25.269C8.66545 24.4779 9.00037 23.5033 9 22.5V11.7813L23 8.28125V14.76C22.1658 14.2026 21.1692 13.94 20.1687 14.0139C19.1681 14.0877 18.2209 14.4939 17.4776 15.1677C16.7343 15.8415 16.2375 16.7445 16.0661 17.733C15.8948 18.7215 16.0586 19.739 16.5318 20.6237C17.0049 21.5084 17.7601 22.2097 18.6774 22.616C19.5947 23.0224 20.6215 23.1105 21.5946 22.8665C22.5678 22.6224 23.4315 22.0602 24.0485 21.269C24.6655 20.4779 25.0004 19.5033 25 18.5V1C25 0.847907 24.9654 0.69781 24.8987 0.56113C24.8319 0.424449 24.7349 0.304788 24.615 0.211251ZM4.5 25C4.00555 25 3.5222 24.8534 3.11107 24.5787C2.69995 24.304 2.37952 23.9135 2.1903 23.4567C2.00108 22.9999 1.95157 22.4972 2.04804 22.0123C2.1445 21.5273 2.3826 21.0819 2.73223 20.7322C3.08186 20.3826 3.52732 20.1445 4.01227 20.048C4.49723 19.9516 4.99989 20.0011 5.45671 20.1903C5.91352 20.3795 6.30397 20.7 6.57867 21.1111C6.85338 21.5222 7 22.0055 7 22.5C7 23.163 6.73661 23.7989 6.26777 24.2678C5.79892 24.7366 5.16304 25 4.5 25ZM9 9.71875V5.78125L23 2.28125V6.21875L9 9.71875ZM20.5 21C20.0055 21 19.5222 20.8534 19.1111 20.5787C18.6999 20.304 18.3795 19.9135 18.1903 19.4567C18.0011 18.9999 17.9516 18.4972 18.048 18.0123C18.1445 17.5273 18.3826 17.0819 18.7322 16.7322C19.0819 16.3826 19.5273 16.1445 20.0123 16.048C20.4972 15.9516 20.9999 16.0011 21.4567 16.1903C21.9135 16.3795 22.304 16.7 22.5787 17.1111C22.8534 17.5222 23 18.0055 23 18.5C23 19.163 22.7366 19.7989 22.2678 20.2678C21.7989 20.7366 21.163 21 20.5 21Z" fill="black"/>
</svg>
