<svg width="26" height="26" viewBox="0 0 26 26" fill="none" xmlns="http://www.w3.org/2000/svg">
<path opacity="0.2" d="M25 13C25 15.3734 24.2962 17.6935 22.9776 19.6668C21.6591 21.6402 19.7849 23.1783 17.5922 24.0866C15.3995 24.9948 12.9867 25.2324 10.6589 24.7694C8.33115 24.3064 6.19295 23.1635 4.51472 21.4853C2.83649 19.8071 1.6936 17.6689 1.23058 15.3411C0.767559 13.0133 1.0052 10.6005 1.91345 8.4078C2.8217 6.21509 4.35977 4.34094 6.33316 3.02236C8.30655 1.70379 10.6266 1 13 1C16.1826 1 19.2349 2.26428 21.4853 4.51472C23.7357 6.76516 25 9.8174 25 13Z" fill="#F3F3F3"/>
<path d="M13 0C10.4288 0 7.91543 0.762437 5.77759 2.1909C3.63975 3.61935 1.97351 5.64968 0.989572 8.02512C0.0056327 10.4006 -0.251811 13.0144 0.249797 15.5362C0.751405 18.0579 1.98953 20.3743 3.80762 22.1924C5.6257 24.0105 7.94208 25.2486 10.4638 25.7502C12.9856 26.2518 15.5995 25.9944 17.9749 25.0104C20.3503 24.0265 22.3807 22.3603 23.8091 20.2224C25.2376 18.0846 26 15.5712 26 13C25.9964 9.5533 24.6256 6.24882 22.1884 3.81163C19.7512 1.37445 16.4467 0.00363977 13 0ZM13 24C10.8244 24 8.69767 23.3549 6.88873 22.1462C5.07979 20.9375 3.66989 19.2195 2.83733 17.2095C2.00477 15.1995 1.78693 12.9878 2.21137 10.854C2.63581 8.72022 3.68345 6.7602 5.22183 5.22183C6.76021 3.68345 8.72022 2.6358 10.854 2.21136C12.9878 1.78692 15.1995 2.00476 17.2095 2.83733C19.2195 3.66989 20.9375 5.07979 22.1462 6.88873C23.3549 8.69767 24 10.8244 24 13C23.9967 15.9164 22.8367 18.7123 20.7745 20.7745C18.7123 22.8367 15.9164 23.9967 13 24ZM16.8838 18.2175C16.7597 18.4518 16.5477 18.6273 16.2943 18.7054C16.0409 18.7834 15.7669 18.7577 15.5325 18.6338C14.754 18.2153 13.8839 17.9962 13 17.9962C12.1161 17.9962 11.246 18.2153 10.4675 18.6338C10.2338 18.7513 9.96326 18.7725 9.71404 18.6929C9.46482 18.6133 9.25673 18.4392 9.13439 18.2079C9.01205 17.9766 8.98522 17.7066 9.05965 17.4558C9.13407 17.205 9.30383 16.9934 9.53251 16.8662C10.6009 16.3011 11.7913 16.0057 13 16.0057C14.2087 16.0057 15.3991 16.3011 16.4675 16.8662C16.7018 16.9903 16.8773 17.2023 16.9554 17.4557C17.0335 17.7091 17.0077 17.9831 16.8838 18.2175ZM20.8838 11.2175C20.8219 11.3334 20.7378 11.436 20.6363 11.5195C20.5348 11.6029 20.4178 11.6655 20.2921 11.7037C20.1664 11.7419 20.0344 11.7549 19.9036 11.7421C19.7728 11.7292 19.6459 11.6907 19.53 11.6287C17.5219 10.5532 15.2792 9.99039 13.0013 9.99039C10.7233 9.99039 8.48058 10.5532 6.47251 11.6287C6.23845 11.7537 5.96434 11.7806 5.71046 11.7035C5.45658 11.6264 5.24374 11.4516 5.11876 11.2175C4.99377 10.9834 4.96689 10.7093 5.04401 10.4555C5.12113 10.2016 5.29595 9.98873 5.53001 9.86375C7.82824 8.63378 10.3946 7.99023 13.0013 7.99023C15.6079 7.99023 18.1743 8.63378 20.4725 9.86375C20.5887 9.9257 20.6914 10.01 20.7749 10.1117C20.8585 10.2135 20.921 10.3307 20.9591 10.4567C20.9972 10.5827 21.0101 10.715 20.9969 10.846C20.9838 10.977 20.9449 11.1041 20.8825 11.22L20.8838 11.2175ZM18.8838 14.7175C18.7591 14.9515 18.5466 15.1264 18.2929 15.2038C18.0393 15.2812 17.7653 15.2546 17.5313 15.13C16.1369 14.3871 14.5812 13.9985 13.0013 13.9985C11.4213 13.9985 9.86563 14.3871 8.47126 15.13C8.23771 15.2493 7.96665 15.2721 7.71647 15.1934C7.4663 15.1148 7.25703 14.941 7.13375 14.7095C7.01048 14.478 6.98306 14.2074 7.05742 13.9559C7.13177 13.7044 7.30193 13.4922 7.53126 13.365C9.21476 12.4673 11.0933 11.9977 13.0013 11.9977C14.9092 11.9977 16.7878 12.4673 18.4713 13.365C18.5874 13.4268 18.6901 13.511 18.7736 13.6126C18.8572 13.7142 18.9198 13.8313 18.958 13.9572C18.9962 14.083 19.0092 14.2152 18.9963 14.3461C18.9833 14.477 18.9446 14.6041 18.8825 14.72L18.8838 14.7175Z" fill="black"/>
</svg>
