<svg width="98" height="97" viewBox="0 0 98 97" fill="none" xmlns="http://www.w3.org/2000/svg">
<path d="M98 48.5C98 75.2858 76.062 97 49 97C21.938 97 0 75.2858 0 48.5C0 21.7142 21.938 0 49 0C76.062 0 98 21.7142 98 48.5Z" fill="#3DB889"/>
<path d="M78.8332 30.1403C78.6679 29.7292 78.3878 29.3777 78.0285 29.1304C77.6692 28.8831 77.2468 28.7511 76.8146 28.751H68.5024C67.3402 26.7153 65.6863 25.0238 63.7013 23.841C61.7163 22.6583 59.4679 22.0244 57.1746 22.0011C55.466 21.9781 53.7702 22.3071 52.187 22.9688C50.6037 23.6305 49.165 24.6115 47.9555 25.8542C46.7106 27.112 45.7226 28.6133 45.0494 30.27C44.3763 31.9266 44.0316 33.7051 44.0357 35.5009V37.2136C33.0384 34.2268 24.0433 25.0161 23.9477 24.9176C23.6545 24.6131 23.283 24.4012 22.8767 24.3068C22.4705 24.2124 22.0465 24.2395 21.6547 24.3849C21.2629 24.5303 20.9197 24.7879 20.6653 25.1275C20.411 25.467 20.2562 25.8743 20.2191 26.3014C19.0418 39.742 22.8332 48.7362 26.2286 53.9139C27.8841 56.4735 29.8981 58.767 32.2053 60.72C28.0451 65.6502 21.4948 68.2405 21.4237 68.2686C21.1154 68.3875 20.8371 68.5766 20.6097 68.8218C20.3823 69.067 20.2117 69.362 20.1106 69.6846C20.0094 70.0072 19.9804 70.3492 20.0257 70.685C20.071 71.0209 20.1894 71.3418 20.3721 71.6238C20.577 71.9388 21.3964 73.0441 23.3987 74.0763C25.8735 75.3531 29.1432 76 33.1094 76C52.4134 76 68.5434 60.6947 70.1905 41.002L78.3606 32.5928C78.6661 32.278 78.8741 31.8769 78.9582 31.4404C79.0423 31.0038 78.9988 30.5514 78.8332 30.1403ZM66.5411 38.4117C66.1665 38.7984 65.9412 39.3122 65.9074 39.8573C64.7956 57.601 50.3948 71.5001 33.1094 71.5001C30.2249 71.5001 28.1926 71.1063 26.7667 70.6339C29.9107 68.8761 34.2949 65.8527 37.1139 61.4991C37.2793 61.2431 37.3921 60.9549 37.4451 60.6522C37.4982 60.3496 37.4904 60.039 37.4223 59.7396C37.3542 59.4402 37.2273 59.1584 37.0492 58.9115C36.8712 58.6646 36.6459 58.4579 36.3873 58.3041C36.2589 58.2282 24.393 50.8962 24.3684 31.3047C28.7389 34.9609 36.7287 40.6336 45.8577 42.2141C46.1705 42.2685 46.4911 42.252 46.7972 42.1658C47.1032 42.0797 47.3874 41.926 47.6299 41.7153C47.8725 41.5047 48.0675 41.2422 48.2016 40.9461C48.3356 40.65 48.4055 40.3274 48.4062 40.0008V35.5009C48.4038 34.3006 48.6345 33.112 49.0848 32.005C49.5352 30.898 50.196 29.8949 51.0285 29.0547C51.8266 28.2315 52.7768 27.5814 53.8231 27.1428C54.8693 26.7042 55.9904 26.4859 57.1199 26.501C60.5781 26.546 63.8095 28.7172 65.1617 31.9037C65.3321 32.3044 65.6123 32.6451 65.9679 32.8844C66.3235 33.1237 66.7391 33.251 67.1639 33.2509H71.5344L66.5411 38.4117Z" fill="#F3F3F3"/>
</svg>
