<svg width="27" height="24" viewBox="0 0 27 24" fill="none" xmlns="http://www.w3.org/2000/svg">
<path d="M26.7075 4.7075L22.97 8.445C22.215 17.1975 14.8338 24 6 24C4.185 24 2.68875 23.7125 1.5525 23.145C0.636251 22.6863 0.261251 22.195 0.167501 22.055C0.0839066 21.9296 0.0297234 21.787 0.00900042 21.6378C-0.0117226 21.4885 0.0015505 21.3365 0.0478274 21.1931C0.0941042 21.0497 0.172188 20.9186 0.276246 20.8096C0.380303 20.7007 0.507643 20.6166 0.648751 20.5638C0.681251 20.5513 3.67875 19.4 5.5825 17.2088C4.52673 16.3407 3.6051 15.3214 2.8475 14.1838C1.2975 11.8825 -0.437499 7.885 0.0975009 1.91125C0.114459 1.72143 0.185303 1.54041 0.301692 1.38951C0.41808 1.2386 0.575165 1.1241 0.754449 1.05948C0.933732 0.994858 1.12775 0.982812 1.31365 1.02476C1.49955 1.06671 1.66959 1.1609 1.80375 1.29625C1.8475 1.34 5.96375 5.43375 10.9963 6.76125V6C10.9943 5.20174 11.1522 4.41117 11.4604 3.67484C11.7687 2.93851 12.2212 2.2713 12.7913 1.7125C13.3449 1.15966 14.0036 0.723303 14.7286 0.429181C15.4536 0.135059 16.2302 -0.0108709 17.0125 1.14937e-06C18.062 0.0103523 19.0909 0.292067 19.9992 0.817757C20.9076 1.34345 21.6644 2.09523 22.1963 3H26C26.1979 2.99985 26.3914 3.05841 26.556 3.16828C26.7206 3.27815 26.8489 3.43439 26.9246 3.61721C27.0004 3.80003 27.0202 4.00122 26.9815 4.19531C26.9429 4.38939 26.8475 4.56765 26.7075 4.7075Z" fill="white"/>
</svg>
