<svg width="158" height="158" viewBox="0 0 158 158" fill="none" xmlns="http://www.w3.org/2000/svg">
<path d="M7 25C7 15.0589 15.0589 7 25 7H133C142.941 7 151 15.0589 151 25V133C151 142.941 142.941 151 133 151H25C15.0589 151 7 142.941 7 133V25Z" fill="white"/>
<path d="M25 16H133V-2H25V16ZM142 25V133H160V25H142ZM133 142H25V160H133V142ZM16 133V25H-2V133H16ZM25 142C20.0294 142 16 137.971 16 133H-2C-2 147.912 10.0883 160 25 160V142ZM142 133C142 137.971 137.971 142 133 142V160C147.912 160 160 147.912 160 133H142ZM133 16C137.971 16 142 20.0294 142 25H160C160 10.0883 147.912 -2 133 -2V16ZM25 -2C10.0883 -2 -2 10.0883 -2 25H16C16 20.0294 20.0294 16 25 16V-2Z" fill="black" fill-opacity="0.1"/>
<path d="M154.15 3.85H3.85V154.15H154.15V3.85Z" fill="white" stroke="black" stroke-width="6.3" stroke-linejoin="round"/>
<path fill-rule="evenodd" clip-rule="evenodd" d="M88.4654 68.3368L94.2374 61.1132C93.4594 58.1864 92.2945 55.3765 90.7735 52.7578L81.5891 51.7259C80.8555 50.8992 80.0732 50.117 79.2466 49.3833L78.2147 40.1955C75.5929 38.6841 72.7821 37.5273 69.8559 36.7557L62.6322 42.5243C61.5278 42.4593 60.4206 42.4593 59.3162 42.5243L52.0925 36.7522C49.1753 37.5325 46.3748 38.6974 43.7647 40.2162L42.7327 49.4005C41.9061 50.1342 41.1239 50.9164 40.3902 51.7431L31.2024 52.775C29.6909 55.3968 28.5342 58.2076 27.7626 61.1338L33.5312 68.3575C33.4661 69.4619 33.4661 70.5691 33.5312 71.6735L27.7591 78.8971C28.5371 81.8239 29.702 84.6338 31.223 87.2525L40.4074 88.2845C41.1411 89.1111 41.9233 89.8933 42.7499 90.627L43.7819 99.8148C46.4037 101.326 49.2145 102.483 52.1407 103.255L59.3644 97.486C60.4687 97.5511 61.576 97.5511 62.6804 97.486L69.904 103.258C72.8308 102.48 75.6407 101.315 78.2594 99.7942L79.2913 90.6098C80.1179 89.8761 80.9002 89.0939 81.6339 88.2673L90.8217 87.2353C92.3331 84.6135 93.4899 81.8027 94.2615 78.8765L88.4929 71.6528C88.5488 70.5479 88.5396 69.4407 88.4654 68.3368ZM53.3506 81.4353C55.6133 82.9472 58.2735 83.7542 60.9948 83.7542C64.644 83.7542 68.1438 82.3045 70.7242 79.7242C73.3045 77.1438 74.7542 73.644 74.7542 69.9948C74.7542 67.2735 73.9472 64.6133 72.4353 62.3506C70.9234 60.0878 68.7745 58.3243 66.2603 57.2829C63.7461 56.2414 60.9796 55.969 58.3105 56.4999C55.6415 57.0308 53.1898 58.3412 51.2655 60.2655C49.3412 62.1898 48.0308 64.6415 47.4999 67.3105C46.969 69.9796 47.2414 72.7461 48.2829 75.2603C49.3243 77.7745 51.0878 79.9234 53.3506 81.4353Z" fill="#F3F3F3"/>
<path d="M60.9948 53.4836C57.7292 53.4836 54.537 54.452 51.8217 56.2663C49.1064 58.0805 46.9902 60.6592 45.7405 63.6763C44.4908 66.6933 44.1638 70.0132 44.8009 73.216C45.438 76.4189 47.0105 79.3609 49.3196 81.67C51.6288 83.9792 54.5708 85.5517 57.7737 86.1888C60.9765 86.8259 64.2964 86.4989 67.3134 85.2492C70.3304 83.9995 72.9091 81.8832 74.7234 79.168C76.5377 76.4527 77.5061 73.2605 77.5061 69.9948C77.5015 65.6172 75.7605 61.4201 72.665 58.3247C69.5695 55.2292 65.3725 53.4882 60.9948 53.4836ZM60.9948 81.0023C58.8178 81.0023 56.6896 80.3567 54.8794 79.1472C53.0692 77.9377 51.6584 76.2186 50.8253 74.2072C49.9921 72.1959 49.7741 69.9826 50.1989 67.8474C50.6236 65.7121 51.672 63.7508 53.2114 62.2114C54.7508 60.672 56.7121 59.6236 58.8474 59.1989C60.9826 58.7741 63.1959 58.9921 65.2072 59.8253C67.2186 60.6584 68.9377 62.0692 70.1472 63.8794C71.3567 65.6896 72.0023 67.8178 72.0023 69.9948C72.0023 72.9142 70.8426 75.714 68.7783 77.7783C66.714 79.8426 63.9142 81.0023 60.9948 81.0023ZM91.2654 70.7378C91.2792 70.2425 91.2792 69.7472 91.2654 69.2518L96.3977 62.84C96.6668 62.5033 96.853 62.1082 96.9415 61.6864C97.0299 61.2645 97.018 60.8278 96.9068 60.4115C96.0639 57.2494 94.8054 54.2131 93.1642 51.3819C92.9491 51.0115 92.6506 50.6964 92.2922 50.4617C91.9339 50.227 91.5258 50.0792 91.1003 50.03L82.941 49.1219C82.6016 48.7642 82.2576 48.4202 81.9091 48.0899L80.9459 39.91C80.8964 39.4842 80.748 39.0759 80.5127 38.7175C80.2774 38.3592 79.9617 38.0608 79.5906 37.8461C76.7596 36.2062 73.7232 34.95 70.561 34.1104C70.1446 33.9992 69.708 33.9873 69.2861 34.0757C68.8643 34.1642 68.4692 34.3504 68.1325 34.6195L61.7378 39.7243H60.2518L53.84 34.6023C53.5033 34.3332 53.1082 34.147 52.6864 34.0585C52.2645 33.9701 51.8278 33.982 51.4115 34.0932C48.2494 34.9361 45.2131 36.1946 42.3819 37.8358C42.0115 38.0509 41.6964 38.3494 41.4617 38.7078C41.227 39.0661 41.0792 39.4742 41.03 39.8997L40.1219 48.0727C39.7642 48.4144 39.4202 48.7584 39.0899 49.1047L30.91 50.0438C30.4842 50.0933 30.0759 50.2417 29.7175 50.477C29.3592 50.7123 29.0608 51.028 28.8461 51.3991C27.2065 54.2306 25.9492 57.2669 25.107 60.4287C24.9962 60.8453 24.9849 61.2821 25.0739 61.704C25.163 62.1258 25.3498 62.5208 25.6195 62.8572L30.7243 69.2518V70.7378L25.6023 77.1497C25.3332 77.4864 25.147 77.8815 25.0585 78.3033C24.9701 78.7251 24.982 79.1618 25.0932 79.5782C25.9361 82.7403 27.1946 85.7766 28.8358 88.6078C29.0509 88.9782 29.3494 89.2933 29.7078 89.528C30.0661 89.7627 30.4742 89.9105 30.8997 89.9597L39.059 90.8678C39.4007 91.2255 39.7447 91.5695 40.0909 91.8997L41.0438 100.08C41.0933 100.505 41.2417 100.914 41.477 101.272C41.7123 101.63 42.028 101.929 42.3991 102.144C45.2306 103.783 48.2669 105.041 51.4287 105.883C51.8453 105.993 52.2821 106.005 52.704 105.916C53.1258 105.827 53.5208 105.64 53.8572 105.37L60.2518 100.265C60.7472 100.279 61.2425 100.279 61.7378 100.265L68.1497 105.398C68.4864 105.667 68.8815 105.853 69.3033 105.941C69.7251 106.03 70.1618 106.018 70.5782 105.907C73.7408 105.065 76.7774 103.807 79.6078 102.164C79.9782 101.949 80.2933 101.651 80.528 101.292C80.7627 100.934 80.9105 100.526 80.9597 100.1L81.8678 91.941C82.2255 91.6016 82.5695 91.2576 82.8997 90.9091L91.0797 89.9459C91.5055 89.8964 91.9138 89.748 92.2722 89.5127C92.6305 89.2774 92.9289 88.9617 93.1436 88.5906C94.7832 85.7591 96.0405 82.7228 96.8827 79.561C96.9935 79.1444 97.0048 78.7075 96.9158 78.2857C96.8267 77.8639 96.6398 77.4689 96.3701 77.1325L91.2654 70.7378ZM85.7273 68.502C85.7857 69.4964 85.7857 70.4933 85.7273 71.4877C85.6863 72.1685 85.8996 72.8403 86.3258 73.3728L91.2069 79.4716C90.6468 81.2516 89.9296 82.9783 89.0639 84.6314L81.2899 85.512C80.6129 85.5871 79.9878 85.9107 79.5356 86.4201C78.8735 87.1648 78.1683 87.8701 77.4235 88.5321C76.9141 88.9844 76.5905 89.6094 76.5154 90.2864L75.652 98.0536C73.9992 98.9198 72.2724 99.637 70.4922 100.197L64.39 95.3155C63.9017 94.9253 63.2951 94.713 62.67 94.7135H62.5049C61.5105 94.7719 60.5136 94.7719 59.5192 94.7135C58.8386 94.6745 58.1675 94.8876 57.6341 95.3121L51.5181 100.197C49.7381 99.6365 48.0114 98.9193 46.3583 98.0536L45.4777 90.2899C45.4026 89.6129 45.079 88.9878 44.5696 88.5356C43.8249 87.8735 43.1196 87.1683 42.4576 86.4235C42.0053 85.9141 41.3802 85.5905 40.7032 85.5154L32.9361 84.6486C32.0699 82.9957 31.3527 81.269 30.7931 79.4888L35.6742 73.3865C36.1004 72.8541 36.3137 72.1823 36.2727 71.5015C36.2143 70.5071 36.2143 69.5101 36.2727 68.5157C36.3137 67.8349 36.1004 67.1631 35.6742 66.6307L30.7931 60.5181C31.3532 58.7381 32.0704 57.0114 32.9361 55.3583L40.6998 54.4777C41.3768 54.4026 42.0019 54.079 42.4541 53.5696C43.1162 52.8249 43.8214 52.1196 44.5662 51.4576C45.0776 51.005 45.4025 50.3785 45.4777 49.6998L46.3411 41.9361C47.994 41.0699 49.7207 40.3527 51.5009 39.7931L57.6032 44.6742C58.1356 45.1004 58.8074 45.3137 59.4882 45.2727C60.4826 45.2143 61.4796 45.2143 62.474 45.2727C63.1545 45.3117 63.8256 45.0987 64.359 44.6742L70.4716 39.7931C72.2516 40.3532 73.9783 41.0704 75.6314 41.9361L76.512 49.6998C76.5871 50.3768 76.9107 51.0019 77.4201 51.4541C78.1648 52.1162 78.8701 52.8214 79.5321 53.5662C79.9844 54.0756 80.6094 54.3991 81.2864 54.4743L89.0536 55.3377C89.9198 56.9905 90.637 58.7173 91.1966 60.4974L86.3155 66.5997C85.8852 67.1367 85.6716 67.8153 85.717 68.502H85.7273Z" fill="black"/>
<path d="M136.381 73.381C136.379 78.0761 135.153 82.6896 132.824 86.7661C130.494 90.8426 127.142 94.2413 123.098 96.6266C119.054 99.0119 114.458 100.302 109.763 100.368C105.069 100.435 100.438 99.2758 96.3279 97.006L72.6776 124.428C70.7755 126.33 68.1957 127.399 65.5058 127.399C62.8158 127.399 60.236 126.33 58.3339 124.428C56.4318 122.526 55.3632 119.946 55.3632 117.256C55.3632 114.566 56.4318 111.986 58.3339 110.084L85.7558 86.4338C83.0578 81.5512 81.9383 75.9528 82.5513 70.4082C83.1643 64.8636 85.4797 59.6449 89.1791 55.4697C92.8786 51.2944 97.7804 48.3675 103.211 47.0913C108.641 45.8151 114.334 46.2523 119.506 48.3427L102.631 66.631L105.019 77.7432L116.131 80.131L134.419 63.256C135.719 66.473 136.386 69.9111 136.381 73.381Z" fill="#F3F3F3"/>
<path d="M137.545 61.9904C137.34 61.4844 137.016 61.0356 136.6 60.6825C136.183 60.3294 135.688 60.0825 135.155 59.963C134.623 59.8436 134.069 59.8551 133.542 59.9966C133.015 60.138 132.529 60.4053 132.128 60.7754L115.127 76.4649L107.858 74.904L106.297 67.6351L121.986 50.6335C122.356 50.2323 122.624 49.7473 122.765 49.2201C122.907 48.6929 122.918 48.1392 122.799 47.6066C122.679 47.074 122.432 46.5783 122.079 46.162C121.726 45.7458 121.277 45.4214 120.771 45.2166C116.16 43.3512 111.161 42.6469 106.214 43.1656C101.267 43.6842 96.5224 45.4099 92.3981 48.1911C88.2739 50.9722 84.8958 54.7237 82.5606 59.1159C80.2255 63.5081 79.0048 68.4066 79.0058 73.381C78.9998 77.5816 79.8616 81.7381 81.537 85.5901L56.1359 107.553C56.0726 107.604 56.0136 107.663 55.9545 107.717C53.4225 110.249 52 113.684 52 117.264C52 119.037 52.3492 120.793 53.0277 122.431C53.7063 124.069 54.7008 125.558 55.9545 126.811C57.2082 128.065 58.6966 129.06 60.3347 129.738C61.9728 130.417 63.7285 130.766 65.5015 130.766C69.0824 130.766 72.5165 129.343 75.0486 126.811C75.1034 126.757 75.1625 126.693 75.2131 126.634L97.1717 101.225C101.797 103.255 106.856 104.1 111.891 103.683C116.925 103.265 121.776 101.599 126.004 98.8343C130.232 96.0698 133.703 92.2945 136.105 87.8501C138.506 83.4057 139.761 78.4326 139.756 73.381C139.762 69.4769 139.011 65.6087 137.545 61.9904ZM109.381 97.006C105.386 97.0005 101.457 95.9846 97.9606 94.0529C97.2832 93.6786 96.4977 93.5486 95.7358 93.6845C94.9738 93.8205 94.2818 94.2142 93.7756 94.7996L70.1928 122.112C68.9166 123.324 67.2173 123.99 65.4572 123.968C63.697 123.945 62.0153 123.236 60.7706 121.991C59.5259 120.746 58.8167 119.065 58.7941 117.305C58.7716 115.544 59.4375 113.845 60.65 112.569L87.9411 88.9904C88.5275 88.4839 88.9218 87.7911 89.0578 87.0283C89.1938 86.2654 89.0631 85.479 88.6878 84.8012C86.5364 80.91 85.5267 76.4906 85.7749 72.0512C86.0231 67.6117 87.519 63.3325 90.0908 59.7053C92.6625 56.0781 96.2057 53.2504 100.313 51.5471C104.42 49.8438 108.924 49.3341 113.308 50.0766L100.146 64.3402C99.7797 64.7375 99.5142 65.2169 99.3718 65.7382C99.2294 66.2594 99.2142 66.8072 99.3275 67.3355L101.715 78.4435C101.852 79.0788 102.169 79.6612 102.628 80.1207C103.088 80.5802 103.67 80.8972 104.306 81.0338L115.422 83.4216C115.95 83.5349 116.498 83.5198 117.019 83.3773C117.541 83.2349 118.02 82.9694 118.417 82.6032L132.681 69.4407C133.25 72.8284 133.073 76.2993 132.165 79.612C131.256 82.9247 129.637 85.9997 127.419 88.6231C125.202 91.2466 122.439 93.3555 119.324 94.8031C116.209 96.2508 112.816 97.0025 109.381 97.006Z" fill="black"/>
</svg>
